<svg width="16" height="17" viewBox="0 0 16 17" fill="none" xmlns="http://www.w3.org/2000/svg">
<path d="M5.54599 3.55148C5.04264 3.81303 4.58249 4.1504 4.18166 4.55177C2.01921 6.71459 2.01883 10.2212 4.18147 12.384C6.34392 14.5465 9.85074 14.5461 12.0132 12.3833C12.4145 11.9825 12.7518 11.5225 13.0135 11.0193" stroke="#197BD2" stroke-linecap="round" stroke-linejoin="round"/>
<path d="M5.54597 3.55148C4.46174 5.63788 4.79435 8.26903 6.54532 10.0202C8.2959 11.771 10.9276 12.1032 13.0136 11.0195" stroke="#197BD2" stroke-linecap="round" stroke-linejoin="round"/>
<path d="M7.88235 2.99411H10.3654L7.89384 5.95938H10.3533" stroke="#197BD2" stroke-miterlimit="10" stroke-linecap="round" stroke-linejoin="round"/>
<path d="M11.6666 5.97275H13.4404L11.6749 8.09115H13.4319" stroke="#197BD2" stroke-miterlimit="10" stroke-linecap="round" stroke-linejoin="round"/>
<path d="M9.05206 7.66142H10.2982L9.05771 9.14998H10.2923" stroke="#197BD2" stroke-miterlimit="10" stroke-linecap="round" stroke-linejoin="round"/>
</svg>
