<svg width="14" height="13" viewBox="0 0 14 13" fill="none" xmlns="http://www.w3.org/2000/svg">
<path fill-rule="evenodd" clip-rule="evenodd" d="M4.51467 1.80201C3.7641 1.79779 3.04063 2.08231 2.494 2.59667C1.96067 3.10467 1.66667 3.77867 1.66667 4.49467C1.66667 5.21001 1.96067 5.88401 2.494 6.39201L7 10.68L11.506 6.39201C12.0393 5.88401 12.3333 5.21001 12.3333 4.49467C12.3324 4.13857 12.2585 3.78644 12.1162 3.46001C11.9739 3.13357 11.7662 2.83975 11.506 2.59667C10.392 1.53667 8.57867 1.53667 7.46467 2.59667L7 3.03934L6.53534 2.59667C5.98871 2.08231 5.26524 1.79779 4.51467 1.80201ZM7 12.5L1.56467 7.32667C0.770669 6.57267 0.333336 5.56667 0.333336 4.49534C0.333336 3.42401 0.770669 2.41801 1.56467 1.66201C3.04467 0.252674 5.368 0.126007 7 1.27934C8.632 0.126007 10.9553 0.252674 12.4353 1.66134C13.2293 2.41734 13.6667 3.42334 13.6667 4.49467C13.6667 5.56601 13.2293 6.57201 12.4353 7.32734L7 12.5Z" fill="#D2416E"/>
</svg>
